<svg height="72.000008pt" viewBox="0 0 299.79776 72.000008" width="299.79776pt" xmlns="http://www.w3.org/2000/svg"><path d="m50.570663 69.100575c-3.90537 3.790088-8.214251 3.199237-12.321373 1.412275-4.366526-1.822985-8.358361-1.938273-12.96987 0-5.742777 2.478689-8.790687 1.758139-12.249317-1.412275-19.52685-20.103295-16.64467-50.726596 5.54822-51.879473 5.382493.288223 9.150963 2.975863 12.321373 3.199233 4.712383-.958325 9.223015-3.703618 14.266857-3.343343 6.059807.489974 10.592056 2.882193 13.61836 7.183866-12.465483 7.493701-9.511238 23.922202 1.938274 28.53371-2.291342 6.016578-5.231182 11.961103-10.15973 16.356448zm-20.103296-52.095636c-.583644-8.934799 6.657864-16.284389 14.987402-17.004939 1.145672 10.303841-9.367128 18.013705-14.987402 17.004939z" stroke-width=".072055"/><path d="m70.521 70.95975h9.357386v-48.851063h.321088l19.953246 48.851063h7.61435l19.95325-48.851063h.32108v48.851063h9.35739v-66.18975h-11.83435l-21.46693 52.841713h-.27523l-21.421068-52.841713h-11.880212z" stroke-width="2.18467"/><path d="m163.28914 72.000005c7.33946 0 12.24773-3.34863 14.77067-8.211026h.22936v7.247716h9.95414v-48.256945h-9.95414v28.165176c0 7.522946-4.49542 12.522953-11.46791 12.522953-6.88074 0-10.27524-4.036704-10.27524-11.330291v-29.357838h-9.90827v31.284446c0 11.100929 6.05506 17.935809 16.65139 17.935809z" stroke-width="2.18477"/><path d="m214.18503 71.999993c11.3545 0 19.59568-6.043531 19.59568-14.834118v-.04578c0-6.91343-3.75431-10.805097-13.59794-13.094312l-7.82911-1.785588c-5.17363-1.236177-7.14235-3.250686-7.14235-6.226666v-.04578c0-3.845882 3.34224-6.364019 8.65322-6.364019 5.5857 0 8.88216 2.930196 9.47736 7.142352l.0458.320491h9.29421l-.0458-.549411c-.50362-8.195392-7.37127-14.559412-18.77157-14.559412-11.0798 0-18.58842 5.906177-18.58842 14.513627v.04578c0 7.004999 4.53265 11.400293 13.68951 13.506371l7.8749 1.785589c5.17362 1.236175 6.91343 3.021764 6.91343 6.135097v.04578c0 3.891666-3.57118 6.364019-9.52313 6.364019-6.08932 0-9.38579-2.609705-10.30148-7.050784l-.0915-.457843h-9.79784l.0458.412059c1.00727 8.790588 8.05804 14.742548 20.09932 14.742548z" stroke-width="2.18061"/><path d="m245.20561 15.040942c3.26633 0 5.7966-2.576268 5.7966-5.704593 0-3.17433-2.53027-5.750599-5.7966-5.750599-3.22034 0-5.79661 2.576269-5.79661 5.750599 0 3.128325 2.57627 5.704593 5.79661 5.704593zm-4.96852 55.849809h9.93703v-48.397034h-9.93703z" stroke-width="2.19111"/><path d="m279.05187 72.000005c11.58656 0 19.64677-7.419061 20.70009-17.082157l.0458-.320576h-9.52571l-.0458.366373c-1.19071 5.220819-5.08342 8.747162-11.17438 8.747162-7.64805 0-12.73147-6.182549-12.73147-16.71578v-.0458c0-10.304248 4.99183-16.715781 12.68568-16.715781 6.45732 0 10.12106 3.984309 11.17438 8.701365l.0915.366374h9.43412l-.0458-.320576c-.82434-9.067739-8.33499-17.036359-20.74589-17.036359-13.73899 0-22.71514 9.663096-22.71514 24.913384v.0458c0 15.433474 8.79295 25.096571 22.85253 25.096571z" stroke-width="2.1812"/></svg>